<svg xmlns="http://www.w3.org/2000/svg" xmlns:xlink="http://www.w3.org/1999/xlink" width="3.38in" height="3.25in" viewBox="0 0 243.27 234.26"><defs><linearGradient id="a" x1="13.45" y1="117.13" x2="229.82" y2="117.13" gradientUnits="userSpaceOnUse"><stop offset="0" stop-color="#0090ff"/><stop offset="1" stop-color="#0ed1ff"/></linearGradient><linearGradient id="b" x1="103.67" y1="120.19" x2="142.9" y2="120.19" gradientUnits="userSpaceOnUse"><stop offset="0" stop-color="#0090ff"/><stop offset="1" stop-color="#08b3ff"/></linearGradient><linearGradient id="c" x1="36.53" y1="133.55" x2="64.15" y2="133.55" gradientUnits="userSpaceOnUse"><stop offset="0" stop-color="#0090ff"/><stop offset="1" stop-color="#05a8ff"/></linearGradient><linearGradient id="d" x1="42.54" y1="145.64" x2="64.15" y2="145.64" xlink:href="#c"/><linearGradient id="e" x1="64.99" y1="121.14" x2="186.01" y2="121.14" xlink:href="#a"/></defs><path d="M121.63,9A108.18,108.18,0,1,0,229.82,117.13,108.3,108.3,0,0,0,121.63,9Zm0,209a100.79,100.79,0,1,1,100.8-100.79A100.91,100.91,0,0,1,121.63,217.92Z" fill="url(#a)"/><path d="M127,115.31c3.63.47,7.11,1,10.74,1.49.31-1.1.55-2,.87-3.07-3.71-.56-7.26-1.11-11.13-1.66,1.26-4.58,2.37-8.92,3.79-13.18a11.08,11.08,0,0,1,2.52-3.79c1.34-1.42,3.24-1.1,4.42.47a16.5,16.5,0,0,0,1.5,1.9,1.9,1.9,0,0,0,2.61.39c.47-.47.47-1.5.55-2.36,0-.32-.4-.71-.63-1a6.46,6.46,0,0,0-4.9-2c-4.1-.16-7.1,1.89-9.39,5.13s-3.31,6.86-4.42,10.49c-.31,1.11-.63,2.14-1,3.32-4-.55-7.89-1.11-11.83-1.74-.16,1.11-.24,2-.4,3.16,4,.63,7.66,1.18,11.52,1.81-.55,2.21-1,4.27-1.5,6.32-3.78-.55-7.41-1-11-1.58-.16,1.18-.24,2-.4,3.08,3.63.55,7.18,1.1,10.73,1.66a3,3,0,0,1,0,.86c-1.1,4.82-2.21,9.63-3.47,14.45a11.58,11.58,0,0,1-3.47,6.07,2.75,2.75,0,0,1-4.42-.55,10.87,10.87,0,0,0-1.66-2.13,2.23,2.23,0,0,0-2-.32,3.19,3.19,0,0,0-1,2.21,2.86,2.86,0,0,0,1.27,1.82,7.55,7.55,0,0,0,6.47,1.26,11.67,11.67,0,0,0,8.28-6.55,62.28,62.28,0,0,0,3.24-8.36c.87-2.61,1.42-5.21,2.13-8l11.29,1.66c.31-1.1.63-2.05.87-3.08-3.95-.55-7.74-1.1-11.53-1.73.56-2.21,1-4.26,1.34-6.39Z" fill-rule="evenodd" fill="url(#b)"/><polygon points="64.15 131.58 63.71 126.75 36.53 135.54 37.03 140.35 64.15 131.58" fill="url(#c)"/><polygon points="48.32 150.64 64.15 145.47 63.71 140.64 48.32 145.67 48.32 150.64" fill="url(#d)"/><path d="M150,71l-21.89-9.79L65,82.39,74.37,181,186,143.64l-7.77-81.72Zm28.66,67.9L80.17,172l-6.66-69.24,39.06-12.51-6.64-2.87L73,97.82l-1-10.6,55.83-18.7.18.08,21,9,23.78-7.82,6.33,69Z" fill="url(#e)"/></svg>