<svg xmlns="http://www.w3.org/2000/svg" xmlns:xlink="http://www.w3.org/1999/xlink" width="3.38in" height="3.25in" viewBox="0 0 243.27 234.26"><defs><linearGradient id="a" x1="12.32" y1="113.75" x2="228.69" y2="113.75" gradientUnits="userSpaceOnUse"><stop offset="0" stop-color="#0090ff"/><stop offset="1" stop-color="#0ed1ff"/></linearGradient></defs><path d="M120.51,5.57A108.18,108.18,0,1,0,228.69,113.75,108.31,108.31,0,0,0,120.51,5.57Z" fill="url(#a)"/><path d="M127,111.22c3.63.47,7.11,1,10.74,1.5.31-1.11.55-2.06.86-3.08-3.71-.55-7.26-1.11-11.12-1.66,1.26-4.58,2.36-8.92,3.78-13.18A11.11,11.11,0,0,1,133.76,91c1.34-1.42,3.24-1.1,4.42.48a17.29,17.29,0,0,0,1.5,1.89,1.89,1.89,0,0,0,2.6.39c.48-.47.48-1.5.56-2.36,0-.32-.4-.71-.64-1a6.43,6.43,0,0,0-4.89-2c-4.1-.16-7.1,1.89-9.39,5.13s-3.32,6.86-4.42,10.5c-.32,1.1-.63,2.13-1,3.31-4-.55-7.89-1.1-11.84-1.74-.15,1.11-.23,2.06-.39,3.16,4,.63,7.66,1.18,11.52,1.82-.55,2.21-1,4.26-1.5,6.31-3.79-.55-7.42-1-11-1.58-.15,1.18-.23,2.05-.39,3.08,3.63.55,7.18,1.1,10.73,1.66a3,3,0,0,1,0,.86c-1.1,4.82-2.21,9.63-3.47,14.45a11.5,11.5,0,0,1-3.47,6.07,2.75,2.75,0,0,1-4.42-.55,10.87,10.87,0,0,0-1.66-2.13,2.23,2.23,0,0,0-2-.32,3.21,3.21,0,0,0-1,2.21,2.86,2.86,0,0,0,1.26,1.82,7.58,7.58,0,0,0,6.48,1.26,11.66,11.66,0,0,0,8.28-6.55,63.66,63.66,0,0,0,3.24-8.36c.87-2.61,1.42-5.21,2.13-8l11.28,1.65c.32-1.1.64-2,.87-3.08-3.94-.55-7.73-1.1-11.52-1.73.55-2.21,1-4.26,1.34-6.39Z" fill="#fff" fill-rule="evenodd"/><polygon points="61.33 131.58 60.9 126.75 33.72 135.54 34.21 140.35 61.33 131.58" fill="#fff"/><polygon points="45.51 150.64 61.33 145.47 60.9 140.64 45.51 145.67 45.51 150.64" fill="#fff"/><path d="M150,68.46l-21.89-9.79L65,79.82l9.38,98.66L186,141.07l-7.77-81.71Zm28.66,67.9-98.5,33-6.66-69.24,39.06-12.52-6.64-2.86L73,95.26l-1-10.6L127.8,66,128,66l21,9,23.78-7.82,6.33,69Z" fill="#fff"/></svg>