<svg xmlns="http://www.w3.org/2000/svg" width="3.38in" height="3.25in" viewBox="0 0 243.27 234.26"><path d="M148.93,77.58l-21-9-.18-.08L72,87.22l1,10.6,33-10.47,6.64,2.87L73.51,102.73,80.17,172l98.5-33.05.37-.13-6.33-69Zm-6.58,20.28a1.9,1.9,0,0,1-2.61-.39,16.5,16.5,0,0,1-1.5-1.9c-1.18-1.57-3.08-1.89-4.42-.47a11.08,11.08,0,0,0-2.52,3.79c-1.42,4.26-2.53,8.6-3.79,13.18,3.87.55,7.42,1.1,11.13,1.66-.32,1-.56,2-.87,3.07-3.63-.47-7.11-1-10.74-1.49-.39,2.13-.78,4.18-1.34,6.39,3.79.63,7.58,1.18,11.52,1.73-.23,1-.55,2-.86,3.08l-11.29-1.66c-.71,2.77-1.26,5.37-2.13,8a62.28,62.28,0,0,1-3.24,8.36,11.67,11.67,0,0,1-8.28,6.55,7.55,7.55,0,0,1-6.47-1.26,2.88,2.88,0,0,1-1.27-1.82,3.19,3.19,0,0,1,1-2.21,2.23,2.23,0,0,1,2,.32,10.87,10.87,0,0,1,1.66,2.13,2.75,2.75,0,0,0,4.42.55,11.58,11.58,0,0,0,3.47-6.07c1.26-4.82,2.37-9.63,3.47-14.45a3,3,0,0,0,0-.86c-3.55-.56-7.1-1.11-10.73-1.66.16-1,.24-1.9.4-3.08,3.63.55,7.26,1,11,1.58.48-2,.95-4.11,1.5-6.32-3.86-.63-7.57-1.18-11.52-1.81.16-1.11.24-2,.4-3.16,3.94.63,7.81,1.19,11.83,1.74.32-1.18.64-2.21,1-3.32,1.11-3.63,2.13-7.34,4.42-10.49s5.29-5.29,9.39-5.13a6.46,6.46,0,0,1,4.9,2c.23.32.63.71.63,1C142.82,96.36,142.82,97.39,142.35,97.86Z" fill="#fff"/><path d="M120.51,9A108.18,108.18,0,1,0,228.69,117.13,108.31,108.31,0,0,0,120.51,9Zm-86.3,131.4-.49-4.81,27.18-8.79.43,4.83Zm11.3,10.29v-5l15.39-5,.43,4.83ZM74.37,181,65,82.39l63.13-21.16L150,71l28.23-9.1L186,143.64Z" fill="#fff"/></svg>